<svg xmlns="http://www.w3.org/2000/svg" width="51.5" height="40" viewBox="0 0 51.5 40">
  <defs>
    <style>
      .a {
        fill: #d7569c;
        fill-rule: evenodd;
      }
    </style>
  </defs>
  <title>book</title>
  <path class="a" d="M37.5,3a15.75,15.75,0,0,0-12,2S21.12,1.94,14,3.5C4.56,5.57,0,.5,0,.5v36s5.1,3.57,14,1A12.75,12.75,0,0,1,25.5,40h0s5.35-4.92,12-3c8.9,2.57,14-1,14-1V0S46.94,5.07,37.5,3Zm-13,33.25A12.57,12.57,0,0,0,14,34.5c-8.9,2.57-12,0-12,0L2.5,5S4.56,8.57,14,6.5a16.22,16.22,0,0,1,10.5,1ZM49.5,34s-3.1,2.57-12,0c-4.94-1.42-9.15.92-11,2.22V7.4A16.16,16.16,0,0,1,37.5,6c9.44,2.07,12-2,12-2Zm-33-13h-6a1,1,0,0,0,0,2h6a1,1,0,0,0,0-2Zm27-6h-12a1,1,0,0,0,0,2h12a1,1,0,0,0,0-2Zm-37,1a1,1,0,0,0,1,1h12a1,1,0,0,0,0-2H7.5A1,1,0,0,0,6.5,16Zm34,5h-6a1,1,0,0,0,0,2h6a1,1,0,0,0,0-2Z"/>
</svg>
