<svg xmlns="http://www.w3.org/2000/svg" width="67" height="38" viewBox="0 0 67 38">
  <defs>
    <style>
      .a {
        fill: #d7569c;
        fill-rule: evenodd;
      }
    </style>
  </defs>
  <title>delivercar</title>
  <path class="a" d="M67,15A10,10,0,0,0,57,5H50V0H16V8H7l.14,2H18V2H48V28H18V20H8l-.4-4h25l-2.42,2.41a1,1,0,0,0,1.42,1.42l3.74-3.75a1,1,0,0,0,.5-.25A1,1,0,0,0,36.1,15a.93.93,0,0,0-.77-1.08l-3.74-3.75a1,1,0,0,0-1.42,1.42L32.59,14H1a1,1,0,0,0,0,2H7.57L8,22h8v8h8a5,5,0,1,0,8,0H54a5,5,0,1,0,8,0h5ZM28,36a3,3,0,1,1,3-3A3,3,0,0,1,28,36Zm30,0a3,3,0,1,1,3-3A3,3,0,0,1,58,36Zm7-8H50V7h7c4,0,8,4,8,8Z"/>
</svg>
