<svg xmlns="http://www.w3.org/2000/svg" width="52" height="43" viewBox="0 0 52 43">
  <defs>
    <style>
      .a {
        fill: #d7569c;
      }
    </style>
  </defs>
  <title>location</title>
  <path class="a" d="M43,2c3.86,0,7,2.68,7,6,0,.71-.48,3.51-6.41,11C40.3,15.5,36,10.14,36,8c0-3.3,3.14-6,7-6m.25,10.15a3.92,3.92,0,0,0,4-3.83,4,4,0,0,0-8,0,3.92,3.92,0,0,0,4,3.83M12,14.81c5.51,0,10,4,10,9,0,1.35-.92,5.57-9.16,16.17C8.93,35.77,2,27.44,2,23.79c0-4.95,4.49-9,10-9m0,15.55a6.8,6.8,0,0,0,7-6.57,6.81,6.81,0,0,0-7-6.58,6.81,6.81,0,0,0-7,6.58,6.8,6.8,0,0,0,7,6.57M43,0c-5,0-9,3.57-9,8s9.74,14,9.75,14h0c0-.08,8.25-9.57,8.25-14s-4-8-9-8Zm.25,10.15a1.92,1.92,0,0,1-2-1.83,2,2,0,0,1,4,0,1.92,1.92,0,0,1-2,1.83ZM12,12.81c-6.63,0-12,4.91-12,11S13,43,13,43h0c0-.11,11-13.15,11-19.21s-5.37-11-12-11Zm0,15.55a4.8,4.8,0,0,1-5-4.57,4.8,4.8,0,0,1,5-4.58,4.8,4.8,0,0,1,5,4.58,4.8,4.8,0,0,1-5,4.57ZM39.89,24.7A15.44,15.44,0,0,0,32,27.45a18.37,18.37,0,0,0-7,8.23l15-11Z"/>
</svg>
