<svg xmlns="http://www.w3.org/2000/svg" width="15.99" height="16.02" viewBox="0 0 15.99 16.02">
  <defs>
    <style>
      .a {
        isolation: isolate;
      }

      .b {
        fill-rule: evenodd;
      }
    </style>
  </defs>
  <title>Ресурс 6</title>
  <g class="a">
    <path class="b" d="M15.72,11.71a5.75,5.75,0,0,0-1.82-1.9,2.71,2.71,0,0,0-2.71.95C9.32,12.88,4.84,7,4.84,7a2,2,0,0,1,0-1.9C6,3.5,6.8,3.72,5.75,2.23c-.7-1-.91-.95-.91-.95L3.94.33S2.82-.41,2.12.33.31,2.23.31,2.23-.82,3.07,1.22,6,9.37,15.5,9.37,15.5s1.3,1.16,3.63,0,2.72-1.89,2.72-1.89A1.83,1.83,0,0,0,15.72,11.71Z"/>
  </g>
</svg>
