<svg xmlns="http://www.w3.org/2000/svg" width="20" height="21" viewBox="0 0 20 21">
  <defs>
    <style>
      .a {
        isolation: isolate;
      }

      .b {
        fill-rule: evenodd;
      }
    </style>
  </defs>
  <title>Ресурс 7</title>
  <g class="a">
    <path class="b" d="M7.5,16A2.5,2.5,0,1,0,10,18.5,2.5,2.5,0,0,0,7.5,16Zm7,0A2.5,2.5,0,1,0,17,18.5,2.5,2.5,0,0,0,14.5,16Zm4-12H5L4,.12V0H0V2H2.43l.74,2.76A1.46,1.46,0,0,0,3,5.41l2,7.18A1.43,1.43,0,0,0,6.46,14h8.42c.81,0,2.2-.63,2.2-1.41L20,5.41A1.43,1.43,0,0,0,18.54,4Z"/>
  </g>
</svg>
